<svg xmlns="http://www.w3.org/2000/svg" xmlns:xlink="http://www.w3.org/1999/xlink" width="744" height="619" viewBox="0 0 744 619">
    <defs>
        <path id="b" d="M396.76 228c16.454 0 24.679 0 33.536 2.8a34.81 34.81 0 0 1 20.806 20.806c2.8 8.856 2.8 17.084 2.8 33.537v49.616c0 16.455 0 24.68-2.8 33.537a34.804 34.804 0 0 1-20.806 20.805c-8.857 2.801-17.082 2.801-33.537 2.801h-49.616c-16.454 0-24.68 0-33.537-2.8a34.804 34.804 0 0 1-20.806-20.806c-2.8-8.857-2.8-17.082-2.8-33.537v-49.616c0-16.453 0-24.68 2.8-33.537a34.81 34.81 0 0 1 20.806-20.806c8.856-2.8 17.083-2.8 33.537-2.8h49.616z"/>
        <filter id="a" width="113.4%" height="113.4%" x="-6.7%" y="-4.3%" filterUnits="objectBoundingBox">
            <feOffset dy="2" in="SourceAlpha" result="shadowOffsetOuter1"/>
            <feGaussianBlur in="shadowOffsetOuter1" result="shadowBlurOuter1" stdDeviation="2"/>
            <feComposite in="shadowBlurOuter1" in2="SourceAlpha" operator="out" result="shadowBlurOuter1"/>
            <feColorMatrix in="shadowBlurOuter1" result="shadowMatrixOuter1" values="0 0 0 0 0.462745098 0 0 0 0 0.525490196 0 0 0 0 0.576470588 0 0 0 0.15 0"/>
            <feOffset dy="2" in="SourceAlpha" result="shadowOffsetOuter2"/>
            <feGaussianBlur in="shadowOffsetOuter2" result="shadowBlurOuter2" stdDeviation="2"/>
            <feComposite in="shadowBlurOuter2" in2="SourceAlpha" operator="out" result="shadowBlurOuter2"/>
            <feColorMatrix in="shadowBlurOuter2" result="shadowMatrixOuter2" values="0 0 0 0 0.0941176471 0 0 0 0 0.792156863 0 0 0 0 0.901960784 0 0 0 0.2 0"/>
            <feMerge>
                <feMergeNode in="shadowMatrixOuter1"/>
                <feMergeNode in="shadowMatrixOuter2"/>
            </feMerge>
        </filter>
        <path id="c" d="M21.25 8.096H61V82H8V0h13.25v8.096z"/>
        <path id="e" d="M.573 62.49h71V84h-71z"/>
        <filter id="d" width="107%" height="127.9%" x="-3.5%" y="-20.9%" filterUnits="objectBoundingBox">
            <feOffset dy="-2" in="SourceAlpha" result="shadowOffsetOuter1"/>
            <feGaussianBlur in="shadowOffsetOuter1" result="shadowBlurOuter1" stdDeviation=".5"/>
            <feColorMatrix in="shadowBlurOuter1" values="0 0 0 0 0 0 0 0 0 0 0 0 0 0 0 0 0 0 0.1 0"/>
        </filter>
        <path id="f" d="M21.25 8.096H61V82H8V0h13.25v8.096z"/>
        <path id="h" d="M.573 62.49h71V84h-71z"/>
        <filter id="g" width="107%" height="127.9%" x="-3.5%" y="-20.9%" filterUnits="objectBoundingBox">
            <feOffset dy="-2" in="SourceAlpha" result="shadowOffsetOuter1"/>
            <feGaussianBlur in="shadowOffsetOuter1" result="shadowBlurOuter1" stdDeviation=".5"/>
            <feColorMatrix in="shadowBlurOuter1" values="0 0 0 0 0 0 0 0 0 0 0 0 0 0 0 0 0 0 0.1 0"/>
        </filter>
        <path id="j" d="M136.808 30.049c16.454 0 24.68 0 33.537 2.8a34.81 34.81 0 0 1 20.806 20.806c2.8 8.856 2.8 17.084 2.8 33.537v49.616c0 16.454 0 24.68-2.8 33.537a34.804 34.804 0 0 1-20.806 20.805c-8.857 2.801-17.083 2.801-33.537 2.801H87.192c-16.454 0-24.681 0-33.537-2.801a34.804 34.804 0 0 1-20.806-20.805c-2.8-8.857-2.8-17.083-2.8-33.537V87.192c0-16.453 0-24.681 2.8-33.537a34.81 34.81 0 0 1 20.806-20.806c8.856-2.8 17.083-2.8 33.537-2.8h49.616z"/>
        <filter id="i" width="108.5%" height="108.5%" x="-4.3%" y="-3.1%" filterUnits="objectBoundingBox">
            <feOffset dy="2" in="SourceAlpha" result="shadowOffsetOuter1"/>
            <feGaussianBlur in="shadowOffsetOuter1" result="shadowBlurOuter1" stdDeviation="2"/>
            <feComposite in="shadowBlurOuter1" in2="SourceAlpha" operator="out" result="shadowBlurOuter1"/>
            <feColorMatrix in="shadowBlurOuter1" values="0 0 0 0 0.462745098 0 0 0 0 0.525490196 0 0 0 0 0.576470588 0 0 0 0.25 0"/>
        </filter>
        <path id="l" d="M136.808 30.049c16.454 0 24.68 0 33.537 2.8a34.81 34.81 0 0 1 20.806 20.806c2.8 8.856 2.8 17.084 2.8 33.537v49.616c0 16.454 0 24.68-2.8 33.537a34.804 34.804 0 0 1-20.806 20.805c-8.857 2.801-17.083 2.801-33.537 2.801H87.192c-16.454 0-24.681 0-33.537-2.801a34.804 34.804 0 0 1-20.806-20.805c-2.8-8.857-2.8-17.083-2.8-33.537V87.192c0-16.453 0-24.681 2.8-33.537a34.81 34.81 0 0 1 20.806-20.806c8.856-2.8 17.083-2.8 33.537-2.8h49.616z"/>
        <filter id="k" width="108.5%" height="108.5%" x="-4.3%" y="-3.1%" filterUnits="objectBoundingBox">
            <feOffset dy="2" in="SourceAlpha" result="shadowOffsetOuter1"/>
            <feGaussianBlur in="shadowOffsetOuter1" result="shadowBlurOuter1" stdDeviation="2"/>
            <feComposite in="shadowBlurOuter1" in2="SourceAlpha" operator="out" result="shadowBlurOuter1"/>
            <feColorMatrix in="shadowBlurOuter1" values="0 0 0 0 0.874509804 0 0 0 0 0.454901961 0 0 0 0 0.0470588235 0 0 0 0.25 0"/>
        </filter>
        <path id="n" d="M136.808 30.049c16.454 0 24.68 0 33.537 2.8a34.81 34.81 0 0 1 20.806 20.806c2.8 8.856 2.8 17.084 2.8 33.537v49.616c0 16.454 0 24.68-2.8 33.537a34.804 34.804 0 0 1-20.806 20.805c-8.857 2.801-17.083 2.801-33.537 2.801H87.192c-16.454 0-24.681 0-33.537-2.801a34.804 34.804 0 0 1-20.806-20.805c-2.8-8.857-2.8-17.083-2.8-33.537V87.192c0-16.453 0-24.681 2.8-33.537a34.81 34.81 0 0 1 20.806-20.806c8.856-2.8 17.083-2.8 33.537-2.8h49.616z"/>
        <filter id="m" width="108.5%" height="108.5%" x="-4.3%" y="-3.1%" filterUnits="objectBoundingBox">
            <feOffset dy="2" in="SourceAlpha" result="shadowOffsetOuter1"/>
            <feGaussianBlur in="shadowOffsetOuter1" result="shadowBlurOuter1" stdDeviation="2"/>
            <feComposite in="shadowBlurOuter1" in2="SourceAlpha" operator="out" result="shadowBlurOuter1"/>
            <feColorMatrix in="shadowBlurOuter1" values="0 0 0 0 0.09 0 0 0 0 0.792 0 0 0 0 0.9 0 0 0 0.25 0"/>
        </filter>
        <path id="p" d="M136.808 30.049c16.454 0 24.68 0 33.537 2.8a34.81 34.81 0 0 1 20.806 20.806c2.8 8.856 2.8 17.084 2.8 33.537v49.616c0 16.454 0 24.68-2.8 33.537a34.804 34.804 0 0 1-20.806 20.805c-8.857 2.801-17.083 2.801-33.537 2.801H87.192c-16.454 0-24.681 0-33.537-2.801a34.804 34.804 0 0 1-20.806-20.805c-2.8-8.857-2.8-17.083-2.8-33.537V87.192c0-16.453 0-24.681 2.8-33.537a34.81 34.81 0 0 1 20.806-20.806c8.856-2.8 17.083-2.8 33.537-2.8h49.616z"/>
        <filter id="o" width="108.5%" height="108.5%" x="-4.3%" y="-3.1%" filterUnits="objectBoundingBox">
            <feOffset dy="2" in="SourceAlpha" result="shadowOffsetOuter1"/>
            <feGaussianBlur in="shadowOffsetOuter1" result="shadowBlurOuter1" stdDeviation="2"/>
            <feComposite in="shadowBlurOuter1" in2="SourceAlpha" operator="out" result="shadowBlurOuter1"/>
            <feColorMatrix in="shadowBlurOuter1" values="0 0 0 0 0.462745098 0 0 0 0 0.525490196 0 0 0 0 0.576470588 0 0 0 0.25 0"/>
        </filter>
        <path id="q" d="M0 0h38v38H0z"/>
        <path id="t" d="M136.808 30.049c16.454 0 24.68 0 33.537 2.8a34.81 34.81 0 0 1 20.806 20.806c2.8 8.856 2.8 17.084 2.8 33.537v49.616c0 16.454 0 24.68-2.8 33.537a34.804 34.804 0 0 1-20.806 20.805c-8.857 2.801-17.083 2.801-33.537 2.801H87.192c-16.454 0-24.681 0-33.537-2.801a34.804 34.804 0 0 1-20.806-20.805c-2.8-8.857-2.8-17.083-2.8-33.537V87.192c0-16.453 0-24.681 2.8-33.537a34.81 34.81 0 0 1 20.806-20.806c8.856-2.8 17.083-2.8 33.537-2.8h49.616z"/>
        <filter id="s" width="108.5%" height="108.5%" x="-4.3%" y="-3.1%" filterUnits="objectBoundingBox">
            <feOffset dy="2" in="SourceAlpha" result="shadowOffsetOuter1"/>
            <feGaussianBlur in="shadowOffsetOuter1" result="shadowBlurOuter1" stdDeviation="2"/>
            <feComposite in="shadowBlurOuter1" in2="SourceAlpha" operator="out" result="shadowBlurOuter1"/>
            <feColorMatrix in="shadowBlurOuter1" values="0 0 0 0 0.462745098 0 0 0 0 0.525490196 0 0 0 0 0.576470588 0 0 0 0.25 0"/>
        </filter>
        <path id="v" d="M136.808 30.049c16.454 0 24.68 0 33.537 2.8a34.81 34.81 0 0 1 20.806 20.806c2.8 8.856 2.8 17.084 2.8 33.537v49.616c0 16.454 0 24.68-2.8 33.537a34.804 34.804 0 0 1-20.806 20.805c-8.857 2.801-17.083 2.801-33.537 2.801H87.192c-16.454 0-24.681 0-33.537-2.801a34.804 34.804 0 0 1-20.806-20.805c-2.8-8.857-2.8-17.083-2.8-33.537V87.192c0-16.453 0-24.681 2.8-33.537a34.81 34.81 0 0 1 20.806-20.806c8.856-2.8 17.083-2.8 33.537-2.8h49.616z"/>
        <filter id="u" width="108.5%" height="108.5%" x="-4.3%" y="-3.1%" filterUnits="objectBoundingBox">
            <feOffset dy="2" in="SourceAlpha" result="shadowOffsetOuter1"/>
            <feGaussianBlur in="shadowOffsetOuter1" result="shadowBlurOuter1" stdDeviation="2"/>
            <feComposite in="shadowBlurOuter1" in2="SourceAlpha" operator="out" result="shadowBlurOuter1"/>
            <feColorMatrix in="shadowBlurOuter1" values="0 0 0 0 0.874509804 0 0 0 0 0.454901961 0 0 0 0 0.0470588235 0 0 0 0.25 0"/>
        </filter>
        <path id="x" d="M136.808 30.049c16.454 0 24.68 0 33.537 2.8a34.81 34.81 0 0 1 20.806 20.806c2.8 8.856 2.8 17.084 2.8 33.537v49.616c0 16.454 0 24.68-2.8 33.537a34.804 34.804 0 0 1-20.806 20.805c-8.857 2.801-17.083 2.801-33.537 2.801H87.192c-16.454 0-24.681 0-33.537-2.801a34.804 34.804 0 0 1-20.806-20.805c-2.8-8.857-2.8-17.083-2.8-33.537V87.192c0-16.453 0-24.681 2.8-33.537a34.81 34.81 0 0 1 20.806-20.806c8.856-2.8 17.083-2.8 33.537-2.8h49.616z"/>
        <filter id="w" width="108.5%" height="108.5%" x="-4.3%" y="-3.1%" filterUnits="objectBoundingBox">
            <feOffset dy="2" in="SourceAlpha" result="shadowOffsetOuter1"/>
            <feGaussianBlur in="shadowOffsetOuter1" result="shadowBlurOuter1" stdDeviation="2"/>
            <feComposite in="shadowBlurOuter1" in2="SourceAlpha" operator="out" result="shadowBlurOuter1"/>
            <feColorMatrix in="shadowBlurOuter1" values="0 0 0 0 0.09 0 0 0 0 0.792 0 0 0 0 0.9 0 0 0 0.25 0"/>
        </filter>
        <path id="z" d="M136.808 30.049c16.454 0 24.68 0 33.537 2.8a34.81 34.81 0 0 1 20.806 20.806c2.8 8.856 2.8 17.084 2.8 33.537v49.616c0 16.454 0 24.68-2.8 33.537a34.804 34.804 0 0 1-20.806 20.805c-8.857 2.801-17.083 2.801-33.537 2.801H87.192c-16.454 0-24.681 0-33.537-2.801a34.804 34.804 0 0 1-20.806-20.805c-2.8-8.857-2.8-17.083-2.8-33.537V87.192c0-16.453 0-24.681 2.8-33.537a34.81 34.81 0 0 1 20.806-20.806c8.856-2.8 17.083-2.8 33.537-2.8h49.616z"/>
        <filter id="y" width="108.5%" height="108.5%" x="-4.3%" y="-3.1%" filterUnits="objectBoundingBox">
            <feOffset dy="2" in="SourceAlpha" result="shadowOffsetOuter1"/>
            <feGaussianBlur in="shadowOffsetOuter1" result="shadowBlurOuter1" stdDeviation="2"/>
            <feComposite in="shadowBlurOuter1" in2="SourceAlpha" operator="out" result="shadowBlurOuter1"/>
            <feColorMatrix in="shadowBlurOuter1" values="0 0 0 0 0.462745098 0 0 0 0 0.525490196 0 0 0 0 0.576470588 0 0 0 0.25 0"/>
        </filter>
        <path id="A" d="M0 0h38v38H0z"/>
    </defs>
    <g fill="none" fill-rule="evenodd">
        <path d="M0 0h744v619H0z"/>
        <path fill="#18CAE6" d="M342.748 268.935l8.21-2.2-2.811 5.93z"/>
        <text fill="#18CAE6" font-family="VisitorTT1BRK, Visitor TT1 BRK" font-size="13" letter-spacing="1.174">
            <tspan x="234" y="222">mqtt</tspan>
        </text>
        <path stroke="#B3B3B3" stroke-dasharray="2,16" stroke-width="2" d="M51 579.036C289.144 484.556 481.139 97.113 684.933 47"/>
        <path stroke="#DF740C" stroke-dasharray="10" d="M524.75 229.356c-47.614-4.452-81.026 63.08-121.087 59.554"/>
        <path stroke="#DF740C" stroke-dasharray="6,20" stroke-width="2" d="M524.75 229.356c-47.614-4.452-81.026 63.08-121.087 59.554"/>
        <path stroke="#1E1B40" stroke-dasharray="10" d="M369.929 359.208c1.45 22.303-16.075 184.005 112.172 170.464"/>
        <path stroke="#1E1B40" stroke-dasharray="3,28" d="M369.929 359.208c1.325 20.393-13.213 157.334 82.33 170.285"/>
        <path stroke="#18CAE6" stroke-dasharray="10" d="M607.982 476.854C567.327 439.036 417 422.036 417 353"/>
        <path stroke="#18CAE6" stroke-dasharray="2" d="M607.982 476.854C567.327 439.036 417 422.036 417 353"/>
        <path stroke="#C73A63" stroke-dasharray="10" d="M343.713 391c6.447 27.507-60.439 76.495-66.504 134.925"/>
        <path stroke="#C73A63" stroke-dasharray="3,57" stroke-width="3" d="M343.713 391c6.447 27.507-60.439 76.495-66.504 134.925"/>
        <path stroke="#18CAE6" stroke-dasharray="10" d="M137.583 147.52c40.655 37.818 210.399 60.299 210.399 129.334"/>
        <path stroke="#18CAE6" stroke-dasharray="2" d="M137.583 147.52c40.655 37.818 210.399 60.299 210.399 129.334"/>
        <path stroke="#DF740C" stroke-dasharray="10" d="M335.75 330.356c-47.614-4.452-81.026 63.08-121.087 59.554"/>
        <path stroke="#DF740C" stroke-dasharray="6,20" stroke-width="2" d="M335.75 330.356c-47.614-4.452-81.026 63.08-121.087 59.554"/>
        <path stroke="#C73A63" stroke-dasharray="10" d="M397.538 270.496c-8.252-35.212 81.213-115.73 73.206-177.496"/>
        <path stroke="#C73A63" stroke-dasharray="3,57" stroke-width="3" d="M397.538 270.496c-8.252-35.212 81.213-115.73 73.206-177.496"/>
        <path stroke="#1E1B40" stroke-dasharray="10" d="M372 260.476C370.55 238.172 388.074 76.47 259.828 90.01"/>
        <path stroke="#1E1B40" stroke-dasharray="3,28" d="M372 260.476C370.55 238.172 388.074 76.47 259.828 90.01"/>
        <g transform="rotate(45 371.951 309.951)">
            <use fill="#000" filter="url(#a)" xlink:href="#b"/>
            <use fill="#FFF" xlink:href="#b"/>
            <path stroke="#18CAE6" stroke-opacity=".08" stroke-width=".5" d="M396.76 228.25h-49.617c-19.352 0-24.492.29-31.589 2.235a50.88 50.88 0 0 0-1.862.55 34.556 34.556 0 0 0-20.654 20.646 50.548 50.548 0 0 0-.552 1.87c-1.946 7.098-2.236 12.238-2.236 31.592v49.616c0 19.348.29 24.486 2.233 31.581.172.627.357 1.252.552 1.87a34.55 34.55 0 0 0 20.646 20.653c.627.198 1.25.382 1.874.553 7.096 1.947 12.236 2.236 31.588 2.236h49.616c19.348 0 24.486-.289 31.581-2.234a50.876 50.876 0 0 0 1.87-.552 34.55 34.55 0 0 0 20.654-20.645c.199-.629.383-1.254.555-1.88 1.944-7.096 2.233-12.234 2.233-31.582v-49.616c0-19.354-.29-24.494-2.236-31.592a50.878 50.878 0 0 0-.548-1.86 34.556 34.556 0 0 0-20.647-20.653 50.576 50.576 0 0 0-1.88-.555c-7.096-1.944-12.234-2.233-31.582-2.233z"/>
        </g>
        <g transform="rotate(-15 274.508 -628.417)">
            <use fill="#1E1B40" xlink:href="#c"/>
            <path stroke="#1E1B40" stroke-width="7" d="M17.75 3.5H11.5v75h46V11.596H17.75V3.5z"/>
        </g>
        <text fill="#18CAE6" font-family="VisitorTT1BRK, Visitor TT1 BRK" font-size="13" letter-spacing="1.174" transform="rotate(-15 274.508 -628.417)">
            <tspan x="15" y="29">oh</tspan> <tspan x="15" y="41">the</tspan> <tspan x="15" y="53">brick</tspan>
        </text>
        <g transform="rotate(-15 274.508 -628.417)">
            <use fill="#000" filter="url(#d)" xlink:href="#e"/>
            <use fill="#FFF" xlink:href="#e"/>
        </g>
        <g transform="rotate(-15 2230.393 -1456.62)">
            <use fill="#1E1B40" xlink:href="#f"/>
            <path stroke="#1E1B40" stroke-width="7" d="M17.75 3.5H11.5v75h46V11.596H17.75V3.5z"/>
        </g>
        <text fill="#18CAE6" font-family="VisitorTT1BRK, Visitor TT1 BRK" font-size="13" letter-spacing="1.174" transform="rotate(-15 2230.393 -1456.62)">
            <tspan x="15" y="29">oh</tspan> <tspan x="15" y="41">the</tspan> <tspan x="15" y="53">brick</tspan>
        </text>
        <g transform="rotate(-15 2230.393 -1456.62)">
            <use fill="#000" filter="url(#g)" xlink:href="#h"/>
            <use fill="#FFF" xlink:href="#h"/>
        </g>
        <path fill="#18CAE6" d="M614 491h19.496v10.227h9.748V491h19.495v59.105H614V491zm9.748 20.002v29.327h29.244v-29.327h-29.244zm4.306 5.028h21.081v21.081h-21.08v-21.08zm21.081 20.216a26.74 26.74 0 0 1-1.95-1.782l.068-.058a.951.951 0 0 1-.072.055l-.058-.06a.898.898 0 0 0-.129-.94l.075.09c-.256-.305-.692-.456-1.086-.41-1.404-1.693-2.52-3.655-2.751-5.76a9.297 9.297 0 0 0-.082-.571.697.697 0 0 0 .213-.02.704.704 0 0 0 .501-.848l-.13-.524a.69.69 0 0 0-1.025-.436c-.467-1.576-1.186-3.411-2.018-5.342l.027-.007a.648.648 0 0 0 .476-.787l-.376-1.513a.645.645 0 0 0-.79-.47l-.516.128-.442-.96h-11.016v5.087c4.368 3.05 8.531 6.708 9.188 10.326.434 2.396 1.996 4.259 3.839 5.667h8.054v-.865zM97 143h19.496v10.227h9.748V143h19.495v59.105H97V143zm9.748 20.002v29.327h29.244v-29.327h-29.244zm4.306 5.028h21.081v21.081h-21.08v-21.08zm21.081 20.216a26.74 26.74 0 0 1-1.95-1.782l.068-.058a.951.951 0 0 1-.072.055l-.058-.06a.898.898 0 0 0-.129-.94l.075.09c-.256-.305-.692-.456-1.086-.41-1.404-1.693-2.52-3.655-2.751-5.76a9.297 9.297 0 0 0-.082-.571.697.697 0 0 0 .213-.02.704.704 0 0 0 .501-.848l-.13-.524a.69.69 0 0 0-1.025-.436c-.467-1.576-1.186-3.411-2.018-5.342l.027-.007a.648.648 0 0 0 .476-.787l-.376-1.513a.645.645 0 0 0-.79-.47l-.516.128-.442-.96h-11.016v5.087c4.368 3.05 8.531 6.708 9.188 10.326.434 2.396 1.996 4.259 3.839 5.667h8.054v-.865z"/>
        <g>
            <path fill="#1E1B40" d="M401.048 295.9l2.796 2.116 2.897 4.088 1.165 5.677-.547 3.732-1.953 4.08-1.875 1.094h-64.687l-2.031-1.25-2.071-4.782-.742-5.53 1.465-7.795 3.535-5.564 5.33-4.06 6.858-1.487 3.593.469 6.924-6.733 4.618-2.058 6.427-.897 5.84.81 7.676 4.112 4.163 4.35s3.159 5.238 4.04 8.384l6.579 1.244zM354 334h2v2h-2v-2zm2 2h2v2h-2v-2zm-2 2h2v2h-2v-2zm2 0h2v2h-2v-2zm6 2h2v2h-2v-2zm2 6h2v2h-2v-2zm14 0h2v2h-2v-2zm2-6h2v2h-2v-2zm6-2h2v2h-2v-2zm-28 0h2v2h-2v-2zm-4 2h8v2h-8v-2zm8 2h2v2h-2v-2zm2 2h2v2h-2v-2zm2 2h2v2h-2v-2zm2 2h2v2h-2v-2zm2 2h2v2h-2v-2zm6-4h2v2h-2v-2zm-2 2h2v2h-2v-2zm-2 2h2v2h-2v-2zm6-6h2v2h-2v-2zm2-2h2v2h-2v-2zm2-2h2v2h-2v-2zm2 0h2v2h-2v-2zm2 0h2v2h-2v-2zm2-4h2v2h-2v-2zm-36-2h2v2h-2v-2zm6 2h28v2h-28v-2zm-2-2h32v2h-32v-2zm0-2h32v2h-32v-2zm4 6h24v2h-24v-2zm4 2h16v2h-16v-2zm0 2h16v2h-16v-2zm2 2h12v2h-12v-2zm2 2h8v2h-8v-2zm2 2h4v2h-4v-2zm-18-12h2v2h-2v-2zm34 0h2v2h-2v-2zm2-2h2v2h-2v-2zm-4 4h2v2h-2v-2zm-30-2h2v2h-2v-2zM362 320h6v6h-6v-6zm12 0h6v6h-6v-6zm-6 2h6v2h-6v-2z"/>
            <path fill="#18CAE6" d="M370 338h4v2h-4z"/>
            <text fill="#18CAE6" font-family="VisitorTT1BRK, Visitor TT1 BRK" font-size="13" letter-spacing="1.174" transform="translate(334 277)">
                <tspan x="3" y="33">MR Cloud</tspan>
            </text>
        </g>
        <g font-family="VisitorTT1BRK, Visitor TT1 BRK" font-size="13" letter-spacing="1.174">
            <text fill="#DF740C" transform="translate(223 68)">
                <tspan x="0" y="283">OAuth</tspan>
            </text>
            <text fill="#C73A63" transform="translate(223 68)">
                <tspan x="83" y="418">SSL</tspan>
            </text>
            <text fill="#1E1B40" transform="translate(223 68)">
                <tspan x="104" y="9">rest</tspan> <tspan x="104" y="21">https</tspan>
            </text>
        </g>
        <g>
            <g transform="rotate(-15 717.607 -1817.396)">
                <use fill="#000" filter="url(#i)" xlink:href="#j"/>
                <use fill="#FFF" fill-opacity=".25" xlink:href="#j"/>
            </g>
            <g transform="rotate(30 202.192 1127.833)">
                <use fill="#000" filter="url(#k)" xlink:href="#l"/>
                <use fill="#FFF" fill-opacity=".25" xlink:href="#l"/>
            </g>
            <g transform="rotate(6 -496.192 5118.596)">
                <use fill="#000" filter="url(#m)" xlink:href="#n"/>
                <use fill="#FFF" fill-opacity=".25" xlink:href="#n"/>
            </g>
            <g transform="translate(520 91)">
                <use fill="#000" filter="url(#o)" xlink:href="#p"/>
                <use fill="#FFF" fill-opacity=".25" xlink:href="#p"/>
            </g>
            <g>
                <path fill="#DF740C" d="M655 265.005a2.002 2.002 0 0 1-2.003 1.995h-33.994a2.005 2.005 0 0 1-2.003-1.995V246h38v19.005z"/>
                <text fill="#FFF" font-family="VisitorTT1BRK, Visitor TT1 BRK" font-size="13" letter-spacing="1.174" transform="translate(617 246)">
                    <tspan x="6" y="14">API</tspan>
                </text>
                <g transform="rotate(-180 327.5 123)">
                    <mask id="r" fill="#fff">
                        <use xlink:href="#q"/>
                    </mask>
                    <use fill="#402A14" xlink:href="#q"/>
                    <path fill="#FFF" d="M0 18h12v2H0v-2zm12-8h2v10h-2V10zm0-2h14v2H12V8zm12 2h2v4h-2v-4zm2 2h2v12h-2V12zM26 30h2v2h-2z" mask="url(#r)"/>
                </g>
            </g>
            <g>
                <path fill="#18CAE6" d="M700 225.005a2.002 2.002 0 0 1-2.003 1.995h-33.994a2.005 2.005 0 0 1-2.003-1.995V206h38v19.005z"/>
                <text fill="#FFF" font-family="VisitorTT1BRK, Visitor TT1 BRK" font-size="13" letter-spacing="1.174" transform="translate(662 206)">
                    <tspan x="6" y="14">API</tspan>
                </text>
                <g>
                    <path fill="#1E1B40" d="M662.068 169.012h38v38h-38z"/>
                    <path fill="#FFF" d="M676.878 198.194c9.372 0 14.497-7.764 14.497-14.496 0-.22-.005-.44-.015-.659a10.36 10.36 0 0 0 2.542-2.638 10.16 10.16 0 0 1-2.926.802 5.113 5.113 0 0 0 2.24-2.818 10.218 10.218 0 0 1-3.235 1.237 5.096 5.096 0 0 0-8.682 4.646 14.466 14.466 0 0 1-10.502-5.323 5.081 5.081 0 0 0-.69 2.56c0 1.768.9 3.329 2.267 4.242a5.058 5.058 0 0 1-2.308-.638v.065a5.096 5.096 0 0 0 4.087 4.995 5.102 5.102 0 0 1-2.3.087 5.1 5.1 0 0 0 4.759 3.54 10.221 10.221 0 0 1-6.328 2.18c-.411 0-.817-.023-1.216-.07a14.422 14.422 0 0 0 7.81 2.288"/>
                </g>
            </g>
            <g>
                <path fill="#768693" d="M609 229.005a2.002 2.002 0 0 1-2.003 1.995h-33.994a2.005 2.005 0 0 1-2.003-1.995V210h38v19.005z"/>
                <text fill="#FFF" font-family="VisitorTT1BRK, Visitor TT1 BRK" font-size="13" letter-spacing="1.174" transform="translate(571 210)">
                    <tspan x="6" y="14">API</tspan>
                </text>
                <path stroke="#768693" stroke-width="2" d="M572.068 174.012h36v36h-36z"/>
                <g fill="#768693">
                    <path d="M597.138 195.236c.565.245.902.705.902 1.23 0 .696-.528 1.11-1.413 1.11-.939 0-1.375-.837-1.486-1.093l-.138-.317h-1.758l-.003-.002h-1.63c-.444.751-1.34 1.445-2.382 1.445-1.88 0-2.82-1.489-2.94-2.959h7.687v-.322c0-.61-.063-1.182-.18-1.715.22.683.722 1.392 1.773 1.893.384.186.964.462 1.568.73m-8.019-4.671c1.573 0 2.344 1.1 2.567 2.219h-5.235c.273-1.122 1.243-2.22 2.668-2.22m15.425.033v-2.01h-1.634v-2.377h-2.006v2.377h-4.04c-1.867 0-3.221 1.272-3.221 3.024 0 .187.017.39.054.601-.636-2.232-2.312-3.625-4.563-3.625-2.753 0-4.857 2.171-5.034 5.113v-.625c0-2.476-1.988-4.488-4.43-4.488-2.443 0-4.431 2.012-4.431 4.488v6.435h2.03v-6.435c0-1.34 1.077-2.431 2.4-2.431 1.324 0 2.4 1.091 2.4 2.431v6.435h2.031v-5.007c.178 2.953 2.31 5.132 5.098 5.132 1.703 0 3.205-1.002 4.055-2.162.635 1.374 1.875 2.162 3.406 2.162 1.776 0 3.573-1.149 3.573-3.345 0-1.315-.754-2.39-2.123-3.026-.175-.081-.316-.149-.451-.214l-.019-.01a34.999 34.999 0 0 0-.484-.228c-.894-.406-1.32-.705-1.32-1.298 0-.523.46-.917 1.031-.917h4.038v5.73c0 1.825 1.464 3.308 3.264 3.308v-2.032a1.268 1.268 0 0 1-1.258-1.275v-5.73h1.634M605.474 198.834h-.088v.133h.088c.043 0 .074-.025.074-.07 0-.045-.034-.063-.074-.063zm.074.475l-.083-.201h-.078v.201h-.155v-.616h.242c.128 0 .23.07.23.209 0 .07-.029.14-.094.175l.1.232h-.162zm-.093-.774c-.274 0-.46.203-.46.477 0 .276.184.479.46.479.273 0 .46-.206.46-.479 0-.274-.185-.477-.46-.477zm0 1.1a.598.598 0 0 1-.618-.623.6.6 0 0 1 .618-.622c.355 0 .618.262.618.622a.6.6 0 0 1-.618.623z"/>
                </g>
            </g>
        </g>
        <g>
            <g transform="rotate(-15 1176.108 217.32)">
                <use fill="#000" filter="url(#s)" xlink:href="#t"/>
                <use fill="#FFF" fill-opacity=".25" xlink:href="#t"/>
            </g>
            <g transform="rotate(30 -404.121 268.294)">
                <use fill="#000" filter="url(#u)" xlink:href="#v"/>
                <use fill="#FFF" fill-opacity=".25" xlink:href="#v"/>
            </g>
            <g transform="rotate(6 -2545.319 337.365)">
                <use fill="#000" filter="url(#w)" xlink:href="#x"/>
                <use fill="#FFF" fill-opacity=".25" xlink:href="#x"/>
            </g>
            <g transform="translate(9 279)">
                <use fill="#000" filter="url(#y)" xlink:href="#z"/>
                <use fill="#FFF" fill-opacity=".25" xlink:href="#z"/>
            </g>
            <g>
                <path fill="#DF740C" d="M144 453.005a2.002 2.002 0 0 1-2.003 1.995h-33.994a2.005 2.005 0 0 1-2.003-1.995V434h38v19.005z"/>
                <text fill="#FFF" font-family="VisitorTT1BRK, Visitor TT1 BRK" font-size="13" letter-spacing="1.174" transform="translate(106 434)">
                    <tspan x="6" y="14">API</tspan>
                </text>
                <g transform="rotate(-180 72 217)">
                    <mask id="B" fill="#fff">
                        <use xlink:href="#A"/>
                    </mask>
                    <use fill="#402A14" xlink:href="#A"/>
                    <path fill="#FFF" d="M0 18h12v2H0v-2zm12-8h2v10h-2V10zm0-2h14v2H12V8zm12 2h2v4h-2v-4zm2 2h2v12h-2V12zM26 30h2v2h-2z" mask="url(#B)"/>
                </g>
            </g>
            <g>
                <path fill="#18CAE6" d="M189 413.005a2.002 2.002 0 0 1-2.003 1.995h-33.994a2.005 2.005 0 0 1-2.003-1.995V394h38v19.005z"/>
                <text fill="#FFF" font-family="VisitorTT1BRK, Visitor TT1 BRK" font-size="13" letter-spacing="1.174" transform="translate(151 394)">
                    <tspan x="6" y="14">API</tspan>
                </text>
                <g>
                    <path fill="#1E1B40" d="M151.068 357.012h38v38h-38z"/>
                    <path fill="#FFF" d="M165.878 386.194c9.372 0 14.497-7.764 14.497-14.496 0-.22-.005-.44-.015-.659a10.36 10.36 0 0 0 2.542-2.638 10.16 10.16 0 0 1-2.926.802 5.113 5.113 0 0 0 2.24-2.818 10.218 10.218 0 0 1-3.235 1.237 5.096 5.096 0 0 0-8.682 4.646 14.466 14.466 0 0 1-10.502-5.323 5.081 5.081 0 0 0-.69 2.56c0 1.768.9 3.329 2.267 4.242a5.058 5.058 0 0 1-2.308-.638v.065a5.096 5.096 0 0 0 4.087 4.995 5.102 5.102 0 0 1-2.3.087 5.1 5.1 0 0 0 4.759 3.54 10.221 10.221 0 0 1-6.328 2.18c-.411 0-.817-.023-1.216-.07a14.422 14.422 0 0 0 7.81 2.288"/>
                </g>
            </g>
            <g>
                <path fill="#768693" d="M98 417.005A2.002 2.002 0 0 1 95.997 419H62.003A2.005 2.005 0 0 1 60 417.005V398h38v19.005z"/>
                <text fill="#FFF" font-family="VisitorTT1BRK, Visitor TT1 BRK" font-size="13" letter-spacing="1.174" transform="translate(60 398)">
                    <tspan x="6" y="14">API</tspan>
                </text>
                <path stroke="#768693" stroke-width="2" d="M61.068 362.012h36v36h-36z"/>
                <g fill="#768693">
                    <path d="M86.138 383.236c.565.245.902.705.902 1.23 0 .696-.528 1.11-1.413 1.11-.939 0-1.375-.837-1.486-1.093l-.138-.317h-1.758l-.003-.002h-1.63c-.444.751-1.34 1.445-2.382 1.445-1.88 0-2.82-1.489-2.94-2.959h7.687v-.322c0-.61-.063-1.182-.18-1.715.22.683.722 1.392 1.773 1.893.384.186.964.462 1.568.73m-8.019-4.671c1.573 0 2.344 1.1 2.567 2.219h-5.235c.273-1.122 1.243-2.22 2.668-2.22m15.425.033v-2.01H91.91v-2.377h-2.006v2.377h-4.04c-1.867 0-3.221 1.272-3.221 3.024 0 .187.017.39.054.601-.636-2.232-2.312-3.625-4.563-3.625-2.753 0-4.857 2.171-5.034 5.113v-.625c0-2.476-1.988-4.488-4.43-4.488-2.443 0-4.431 2.012-4.431 4.488v6.435h2.03v-6.435c0-1.34 1.077-2.431 2.4-2.431 1.324 0 2.4 1.091 2.4 2.431v6.435H73.1v-5.007c.178 2.953 2.31 5.132 5.098 5.132 1.703 0 3.205-1.002 4.055-2.162.635 1.374 1.875 2.162 3.406 2.162 1.776 0 3.573-1.149 3.573-3.345 0-1.315-.754-2.39-2.123-3.026-.175-.081-.316-.149-.451-.214l-.019-.01a34.999 34.999 0 0 0-.484-.228c-.894-.406-1.32-.705-1.32-1.298 0-.523.46-.917 1.031-.917h4.038v5.73c0 1.825 1.464 3.308 3.264 3.308v-2.032a1.268 1.268 0 0 1-1.258-1.275v-5.73h1.634M94.474 386.834h-.088v.133h.088c.043 0 .074-.025.074-.07 0-.045-.034-.063-.074-.063zm.074.475l-.083-.201h-.078v.201h-.155v-.616h.242c.128 0 .23.07.23.209 0 .07-.029.14-.094.175l.1.232h-.162zm-.093-.774c-.274 0-.46.203-.46.477 0 .276.184.479.46.479.273 0 .46-.206.46-.479 0-.274-.185-.477-.46-.477zm0 1.1a.598.598 0 0 1-.618-.623.6.6 0 0 1 .618-.622c.355 0 .618.262.618.622a.6.6 0 0 1-.618.623z"/>
                </g>
            </g>
        </g>
        <path fill="#1E1B40" d="M455 529l-5.146 5.146a.5.5 0 0 1-.854-.353v-9.586a.5.5 0 0 1 .854-.353L455 529z"/>
        <path fill="#C73A63" d="M276.224 526.898l-3.64-6.303a.5.5 0 0 1 .563-.733l9.259 2.48a.5.5 0 0 1 .12.917l-6.302 3.639z"/>
        <path fill="#18CAE6" d="M612.007 481.23l-7.268-.381a.5.5 0 0 1-.308-.871l7.123-6.415a.5.5 0 0 1 .834.398l-.38 7.268z"/>
        <path fill="#DF740C" d="M526.898 227.224l-3.64 6.303a.5.5 0 0 1-.915-.121l-2.481-9.26a.5.5 0 0 1 .733-.562l6.303 3.64z"/>
        <g>
            <path fill="#1E1B40" fill-rule="nonzero" d="M268.074 569.21c-2.774 3.923-8.189 4.908-12.103 2.18-3.895-2.729-4.807-8.167-2.071-12.127a8.718 8.718 0 0 1 6.802-3.751l.095 2.71a6.026 6.026 0 0 0-4.484 2.576c-1.9 2.728-1.311 6.404 1.292 8.242 2.622 1.819 6.289 1.118 8.189-1.592a6.309 6.309 0 0 0 1.064-2.728v-1.914l10.602-.075.133-.209c1.007-1.743 3.192-2.35 4.902-1.364 1.71.985 2.299 3.183 1.292 4.926-1.007 1.724-3.211 2.33-4.921 1.345a3.36 3.36 0 0 1-1.577-1.932l-7.733.038c-.209 1.27-.703 2.5-1.482 3.676zm13.832-13.528c4.807.587 8.227 4.889 7.638 9.606-.589 4.737-4.959 8.09-9.766 7.504a8.797 8.797 0 0 1-6.517-4.188l2.356-1.364c.931 1.459 2.508 2.501 4.408 2.747 3.325.398 6.27-1.856 6.669-5.02.399-3.165-1.957-6.064-5.244-6.462a6.451 6.451 0 0 0-2.907.341l-1.615.834-4.902-9.038h-.418c-2.014-.076-3.572-1.724-3.515-3.695.057-1.97 1.767-3.505 3.762-3.43 1.995.115 3.572 1.725 3.515 3.696a3.549 3.549 0 0 1-.874 2.179l3.61 6.65a9.05 9.05 0 0 1 3.8-.36z"/>
            <path fill="#C73A63" d="M263.875 550.528c-1.9-4.452.114-9.55 4.503-11.406 4.408-1.857 9.5.246 11.4 4.7a8.704 8.704 0 0 1-.38 7.71l-2.356-1.364a5.996 5.996 0 0 0 .171-5.172c-1.292-3.032-4.731-4.49-7.676-3.26-2.964 1.251-4.294 4.738-3.002 7.77a6.078 6.078 0 0 0 2.508 2.86l.741.398-5.833 9.455c.057.095.133.208.19.36a3.564 3.564 0 0 1-1.463 4.832c-1.729.928-3.914.246-4.864-1.535-.931-1.762-.285-3.941 1.463-4.87a3.37 3.37 0 0 1 2.337-.322l4.389-7.143c-.893-.815-1.653-1.838-2.128-3.013z"/>
        </g>
        <g>
            <path fill="#1E1B40" fill-rule="nonzero" d="M470.074 78.21c-2.774 3.923-8.189 4.908-12.103 2.18-3.895-2.729-4.807-8.167-2.071-12.127a8.718 8.718 0 0 1 6.802-3.751l.095 2.71a6.026 6.026 0 0 0-4.484 2.576c-1.9 2.728-1.311 6.404 1.292 8.242 2.622 1.819 6.289 1.118 8.189-1.592a6.309 6.309 0 0 0 1.064-2.728v-1.914l10.602-.075.133-.209c1.007-1.743 3.192-2.35 4.902-1.364 1.71.985 2.299 3.183 1.292 4.926-1.007 1.724-3.211 2.33-4.921 1.345a3.36 3.36 0 0 1-1.577-1.932l-7.733.038c-.209 1.27-.703 2.5-1.482 3.676zm13.832-13.528c4.807.587 8.227 4.889 7.638 9.606-.589 4.737-4.959 8.09-9.766 7.504a8.797 8.797 0 0 1-6.517-4.188l2.356-1.364c.931 1.459 2.508 2.501 4.408 2.747 3.325.398 6.27-1.856 6.669-5.02.399-3.165-1.957-6.064-5.244-6.462a6.451 6.451 0 0 0-2.907.341l-1.615.834-4.902-9.038h-.418c-2.014-.076-3.572-1.724-3.515-3.695.057-1.97 1.767-3.505 3.762-3.43 1.995.115 3.572 1.725 3.515 3.696a3.549 3.549 0 0 1-.874 2.179l3.61 6.65a9.05 9.05 0 0 1 3.8-.36z"/>
            <path fill="#C73A63" d="M465.875 59.528c-1.9-4.452.114-9.55 4.503-11.406 4.408-1.857 9.5.246 11.4 4.7a8.704 8.704 0 0 1-.38 7.71l-2.356-1.364a5.996 5.996 0 0 0 .171-5.172c-1.292-3.032-4.731-4.49-7.676-3.26-2.964 1.251-4.294 4.738-3.002 7.77a6.078 6.078 0 0 0 2.508 2.86l.741.398-5.833 9.455c.057.095.133.208.19.36a3.564 3.564 0 0 1-1.463 4.832c-1.729.928-3.914.246-4.864-1.535-.931-1.762-.285-3.941 1.463-4.87a3.37 3.37 0 0 1 2.337-.322l4.389-7.143c-.893-.815-1.653-1.838-2.128-3.013z"/>
        </g>
    </g>
</svg>
