<?xml version="1.0" encoding="UTF-8" standalone="no"?>
<svg width="60px" height="60px" viewBox="0 0 60 60" version="1.1" xmlns="http://www.w3.org/2000/svg" xmlns:xlink="http://www.w3.org/1999/xlink">
    <!-- Generator: Sketch 39.1 (31720) - http://www.bohemiancoding.com/sketch -->
    <title>Anemone v1@1</title>
    <desc>Created with Sketch.</desc>
    <defs></defs>
    <g id="App-Icon" stroke="none" stroke-width="1" fill="none" fill-rule="evenodd">
        <g id="60pt@1x">
            <g id="Anemone-v1@1">
                <path d="M39.0815,0 C45.105,0 48.116,0 51.3585,1.025 C54.8985,2.3135 57.6865,5.1015 58.975,8.6415 C60,11.8835 60,14.8955 60,20.9185 L60,39.0815 C60,45.105 60,48.116 58.975,51.3585 C57.6865,54.8985 54.8985,57.6865 51.3585,58.9745 C48.116,60 45.105,60 39.0815,60 L20.9185,60 C14.895,60 11.8835,60 8.6415,58.9745 C5.1015,57.6865 2.3135,54.8985 1.025,51.3585 C0,48.116 0,45.105 0,39.0815 L0,20.9185 C0,14.8955 0,11.8835 1.025,8.6415 C2.3135,5.1015 5.1015,2.3135 8.6415,1.025 C11.8835,0 14.895,0 20.9185,0 L39.0815,0 L39.0815,0 Z" id="Path" fill="#1E1B40"></path>
                <g id="Group" stroke-width="1" transform="translate(12.250000, 8.190002)" fill="#18CAE6">
                    <path d="M7.65392578,10.9697058 C7.65392578,10.9697058 12.9221573,1.25444022 14.6404343,7.6228457 C15.7493727,11.7328753 21.8962893,22.358596 22.4058022,27.0139636 C22.9153151,31.6693311 28.5603588,35.4888475 30.2468412,36.5705467 C35.0025614,39.6208357 27.0928658,38.2639531 27.0928658,38.2639531 C27.0928658,38.2639531 18.4128239,36.1572939 17.3760375,30.4313548 C16.3392511,24.7054157 4.87237189,18.8615236 1.46388514,16.5223979 C-1.94460161,14.1832722 7.65392578,10.9697058 7.65392578,10.9697058 Z" id="Path-260"></path>
                    <path d="M23.5706498,31.7208053 C23.242138,31.4703764 23.280744,31.1358269 23.6610324,30.9717761 L23.7284067,30.9427118 C24.1068354,30.7794633 24.6310223,30.9062231 24.8942239,31.2198946 L24.8311211,31.1446916 C25.0965555,31.4610239 25.0488345,31.9380595 24.7437431,32.1940616 L25.0488345,31.9380595 C24.7351426,32.2012783 24.2186909,32.2148156 23.8860219,31.9612177 L23.5706498,31.7208053 Z" id="Rectangle-205-Copy-2"></path>
                    <rect id="Rectangle-205-Copy" x="21.5205723" y="24.99221" width="1.16045557" height="1.63160494" rx="0.580227784"></rect>
                    <path d="M18.016371,18.9383294 C17.9438751,18.6467357 18.1184041,18.3520188 18.4162495,18.277546 L19.4588172,18.0168641 C19.7521599,17.9435172 20.0475427,18.1156625 20.1212267,18.4120348 L20.4371731,19.682837 C20.509669,19.9744306 20.33514,20.2691476 20.0372946,20.3436203 L18.9947269,20.6043022 C18.7013842,20.6776492 18.4060014,20.5055039 18.3323175,20.2091316 L18.016371,18.9383294 L18.016371,18.9383294 Z" id="Rectangle-205"></path>
                    <path d="M0.75,0.321354899 L0.750000202,42.7649571 L35.75,42.7649571 L35.75,0.321354899 L21.7500001,0.321354899 L21.7500001,7.66524221 L14.7500001,7.66524221 L14.7499999,0.321354899 L0.75,0.321354899 Z M7.75000016,14.6851852 L28.75,14.6851852 L28.75,35.7450141 L7.75000016,35.7450141 L7.75000016,14.6851852 Z" id="AnemÖne"></path>
                </g>
            </g>
        </g>
    </g>
</svg>